<svg width="327" height="50" viewBox="0 0 327 50" fill="none" xmlns="http://www.w3.org/2000/svg">
<path d="M19 49L4.21875 9.15625L0.28125 8.65625V3.5H17.5938V8.65625L13.4688 9.3125L22.6562 36.5938L23.4375 39.3125H23.625L24.4062 36.6562L33.6562 9.28125L28.9062 8.65625V3.5H45.5625V8.65625L41.5312 9.15625L27.5 49H19ZM62.875 49.6562C59.5625 49.6562 56.7292 48.9271 54.375 47.4688C52.0208 46.0104 50.2083 43.9896 48.9375 41.4062C47.6667 38.8021 47.0312 35.8125 47.0312 32.4375V31.7812C47.0312 28.4271 47.6667 25.4583 48.9375 22.875C50.2083 20.2917 52.0208 18.2604 54.375 16.7812C56.7292 15.3021 59.5417 14.5625 62.8125 14.5625C66.1042 14.5625 68.9271 15.3021 71.2812 16.7812C73.6354 18.2396 75.4375 20.2604 76.6875 22.8438C77.9583 25.4271 78.5938 28.4062 78.5938 31.7812V32.4375C78.5938 35.8125 77.9583 38.8021 76.6875 41.4062C75.4375 43.9896 73.6354 46.0104 71.2812 47.4688C68.9271 48.9271 66.125 49.6562 62.875 49.6562ZM62.875 43.125C64.5208 43.125 65.875 42.6771 66.9375 41.7812C68.0208 40.8854 68.8229 39.6354 69.3438 38.0312C69.8646 36.4062 70.125 34.5417 70.125 32.4375V31.7812C70.125 29.6979 69.8646 27.8542 69.3438 26.25C68.8229 24.6458 68.0208 23.3958 66.9375 22.5C65.8542 21.5833 64.4792 21.125 62.8125 21.125C61.1458 21.125 59.7708 21.5833 58.6875 22.5C57.625 23.3958 56.8333 24.6458 56.3125 26.25C55.7917 27.8542 55.5312 29.6979 55.5312 31.7812V32.4375C55.5312 34.5625 55.7917 36.4271 56.3125 38.0312C56.8333 39.6354 57.6354 40.8854 58.7188 41.7812C59.8021 42.6771 61.1875 43.125 62.875 43.125ZM83 49V43.8438L100.781 21.2188H90.9062L89.9375 26.9688H83.6875V15.1875H111V20.6875L93.9688 42.8438H104.562L105.812 36.75H111.844V49H83ZM134.375 49L119.594 9.15625L115.656 8.65625V3.5H132.969V8.65625L128.844 9.3125L138.031 36.5938L138.812 39.3125H139L139.781 36.6562L149.031 9.28125L144.281 8.65625V3.5H160.938V8.65625L156.906 9.15625L142.875 49H134.375ZM163.969 49V43.875L168.5 42.9375V21.2812L163.594 20.3438V15.1875H177V42.9375L181.531 43.875V49H163.969ZM168.188 7.78125V0.25H177V7.78125H168.188ZM199.188 49.6562C196.708 49.6562 194.396 49.4271 192.25 48.9688C190.125 48.4896 188.042 47.7917 186 46.875L185.906 37.625H191.906L193.094 42.5C193.906 42.875 194.76 43.1667 195.656 43.375C196.552 43.5833 197.562 43.6875 198.688 43.6875C200.833 43.6875 202.344 43.3333 203.219 42.625C204.115 41.8958 204.562 40.9896 204.562 39.9062C204.562 38.8646 204.094 37.9688 203.156 37.2188C202.219 36.4479 200.406 35.7812 197.719 35.2188C193.698 34.3646 190.74 33.0833 188.844 31.375C186.948 29.6458 186 27.4375 186 24.75C186 22.875 186.479 21.1771 187.438 19.6562C188.417 18.1354 189.875 16.9167 191.812 16C193.75 15.0625 196.177 14.5938 199.094 14.5938C201.656 14.5938 203.958 14.8542 206 15.375C208.062 15.8958 209.802 16.5625 211.219 17.375L211.375 26.3125H205.406L204.438 21.875C203.833 21.4375 203.125 21.1042 202.312 20.875C201.5 20.625 200.583 20.5 199.562 20.5C197.896 20.5 196.594 20.8542 195.656 21.5625C194.74 22.2708 194.281 23.1667 194.281 24.25C194.281 24.875 194.438 25.4479 194.75 25.9688C195.062 26.4896 195.667 26.9792 196.562 27.4375C197.479 27.875 198.812 28.2917 200.562 28.6875C204.854 29.6667 207.948 30.9688 209.844 32.5938C211.76 34.2188 212.719 36.4271 212.719 39.2188C212.719 42.3021 211.594 44.8125 209.344 46.75C207.115 48.6875 203.729 49.6562 199.188 49.6562ZM216.844 49V43.875L221.375 42.9375V21.2812L216.469 20.3438V15.1875H229.875V42.9375L234.406 43.875V49H216.844ZM220.375 8.75L226.5 0.25H235.625L235.688 0.4375L227.125 8.75H220.625H220.375ZM250.625 49L240.031 20.9062L236.406 20.3438V15.1875H252.344V20.3438L248.625 20.9688L254.219 37.125L255 39.7812H255.188L256.094 37.125L261.969 20.9688L257.75 20.3438V15.1875H273.656V20.3438L269.938 20.9688L259.094 49H250.625ZM291.75 49.6562C288.542 49.6562 285.74 48.9479 283.344 47.5312C280.969 46.0938 279.125 44.125 277.812 41.625C276.5 39.1042 275.844 36.2292 275.844 33V31.7188C275.844 28.4062 276.469 25.4583 277.719 22.875C278.99 20.2917 280.76 18.2604 283.031 16.7812C285.302 15.3021 287.927 14.5625 290.906 14.5625C293.969 14.5625 296.542 15.1771 298.625 16.4062C300.708 17.6146 302.281 19.3542 303.344 21.625C304.406 23.8958 304.938 26.625 304.938 29.8125V34.5312H284.656L284.594 34.7188C284.677 36.3438 285.042 37.7917 285.688 39.0625C286.333 40.3125 287.24 41.3021 288.406 42.0312C289.573 42.7604 290.99 43.125 292.656 43.125C294.427 43.125 296.042 42.8958 297.5 42.4375C298.979 41.9792 300.385 41.3021 301.719 40.4062L304.156 45.6875C302.802 46.8125 301.083 47.7604 299 48.5312C296.917 49.2812 294.5 49.6562 291.75 49.6562ZM284.75 28.75H296.938V27.9375C296.938 26.5208 296.729 25.2917 296.312 24.25C295.896 23.1875 295.25 22.3646 294.375 21.7812C293.521 21.1979 292.406 20.9062 291.031 20.9062C289.781 20.9062 288.708 21.25 287.812 21.9375C286.917 22.6042 286.208 23.5208 285.688 24.6875C285.167 25.8333 284.823 27.1354 284.656 28.5938L284.75 28.75ZM308.812 49V43.875L313.375 42.9375V6.34375L308.469 5.40625V0.25H321.875V42.9375L326.438 43.875V49H308.812Z" fill="#0F172A"/>
</svg>
